<?xml version="1.0" standalone="no"?>
<!DOCTYPE svg PUBLIC "-//W3C//DTD SVG 20010904//EN"
 "http://www.w3.org/TR/2001/REC-SVG-20010904/DTD/svg10.dtd">
<svg version="1.0" xmlns="http://www.w3.org/2000/svg"
 width="260.000000pt" height="260.000000pt" viewBox="0 0 260.000000 260.000000"
 preserveAspectRatio="xMidYMid meet">
<metadata>
Created by potrace 1.11, written by Peter Selinger 2001-2013
</metadata>
<g transform="translate(0.000000,260.000000) scale(0.100000,-0.100000)"
fill="#000000" stroke="none">
<path d="M2015 2070 c-16 -5 -41 -11 -55 -14 -88 -14 -203 -62 -283 -119 l-47
-34 -810 1 c-446 1 -810 -2 -810 -5 0 -4 40 -39 89 -78 l89 -71 647 0 c356 0
645 -3 643 -7 -2 -5 -17 -32 -33 -60 l-30 -53 -543 -2 -544 -3 94 -70 93 -70
423 0 422 0 -1 -25 c-1 -14 -4 -38 -8 -55 l-6 -30 -343 -5 -343 -5 93 -69 93
-70 247 -1 c136 0 249 -3 251 -5 2 -3 8 -27 14 -53 8 -36 8 -50 -1 -52 -6 -2
-93 -3 -193 -2 -123 1 -179 -1 -173 -8 5 -6 48 -37 96 -70 l88 -59 119 -1
c117 0 120 -1 135 -25 8 -14 23 -37 34 -52 l19 -28 -93 0 -93 0 30 -28 c27
-24 45 -39 132 -106 17 -13 42 -19 91 -20 54 -1 74 -6 102 -26 19 -13 37 -27
40 -31 9 -11 113 -61 170 -81 51 -17 108 -30 138 -31 6 0 12 -4 12 -8 0 -9
161 -10 175 -1 5 4 15 7 20 8 6 1 26 4 45 7 85 14 232 80 295 132 25 21 19 19
-40 -10 -108 -54 -201 -74 -325 -71 -190 5 -347 74 -483 212 -73 74 -155 220
-172 309 -5 22 -10 47 -12 55 -11 42 -9 207 3 266 29 136 106 276 206 370 80
77 217 153 303 168 13 3 29 7 35 11 17 11 198 13 252 3 77 -14 160 -44 218
-78 66 -39 55 -20 -13 23 -79 51 -161 86 -235 103 -37 8 -78 18 -92 23 -36 11
-140 11 -175 1z"/>
</g>
</svg>
